<svg width="84" height="26" viewBox="0 0 84 26" fill="none" xmlns="http://www.w3.org/2000/svg">
<path d="M0.486328 0.914368H3.53458V7.97028H3.58316C4.43326 6.63439 6.12134 5.80857 7.70011 5.80857C12.06 5.80857 14.1731 9.09971 14.1731 13.1559C14.1731 16.8964 12.2786 20.3697 8.21018 20.3697C6.33994 20.3697 4.33611 19.9204 3.42528 18.0987H3.3767V19.9933H0.486328V0.914368ZM7.29935 8.21316C4.73687 8.21316 3.42528 10.132 3.42528 13.1074C3.42528 15.8884 4.84617 17.9773 7.29935 17.9773C10.0804 17.9773 11.1248 15.5241 11.1248 13.1074C11.1248 10.6178 9.81324 8.21316 7.29935 8.21316Z" fill="black"/>
<path d="M16.0195 0.914368H19.0678V3.80474H16.0195V0.914368ZM16.0195 6.1729H19.0678V19.9933H16.0195V6.1729Z" fill="black"/>
<path d="M34.3458 19.2767C34.3458 23.4423 31.9412 25.4825 27.5571 25.4825C24.776 25.4825 21.6792 24.4138 21.3877 21.1834H24.4359C24.8124 22.9201 26.1969 23.2115 27.7514 23.2115C30.2045 23.2115 31.3097 21.9606 31.3097 19.6896V17.5765H31.2611C30.411 19.0946 28.8322 20.0054 27.1199 20.0054C22.7357 20.0054 20.9141 16.69 20.9141 12.7309C20.9141 9.01469 23.2336 5.80856 27.1684 5.80856C28.9051 5.80856 30.4839 6.50079 31.2611 8.07957H31.3097V6.1729H34.3579V19.2767H34.3458ZM31.3097 12.7795C31.3097 10.3992 30.241 8.21316 27.5935 8.21316C24.8974 8.21316 23.9623 10.7271 23.9623 13.0223C23.9623 15.2691 25.0553 17.5886 27.5935 17.5886C30.2896 17.5886 31.3097 15.1598 31.3097 12.7795Z" fill="black"/>
<path d="M35.2539 6.1729H37.5249V5.01918C37.5249 1.4973 39.3709 0.902222 41.3504 0.902222C42.3341 0.902222 43.0385 0.950799 43.4878 1.08439V3.46469C43.0871 3.35539 42.6863 3.30682 42.0669 3.30682C41.2411 3.30682 40.5732 3.59828 40.5732 4.752V6.1729H43.1599V8.44391H40.5732V19.9933H37.5249V8.44391H35.2539V6.1729Z" fill="black"/>
<path d="M43.5977 13.0709C43.5977 8.8811 46.1601 5.79642 50.5686 5.79642C54.977 5.79642 57.5394 8.86896 57.5394 13.0709C57.5394 17.3215 54.977 20.3697 50.5686 20.3697C46.1601 20.3697 43.5977 17.3215 43.5977 13.0709ZM54.5033 13.0709C54.5033 10.6906 53.301 8.20101 50.5807 8.20101C47.8603 8.20101 46.6581 10.6906 46.6581 13.0709C46.6581 15.4755 47.8603 17.9651 50.5807 17.9651C53.301 17.9651 54.5033 15.4755 54.5033 13.0709Z" fill="black"/>
<path d="M59.3613 0.914368H62.4096V19.9933H59.3613V0.914368Z" fill="black"/>
<path d="M64.9961 0.914368H68.0443V3.80474H64.9961V0.914368ZM64.9961 6.1729H68.0443V19.9933H64.9961V6.1729Z" fill="black"/>
<path d="M69.916 13.0709C69.916 8.8811 72.4785 5.79642 76.8869 5.79642C81.2953 5.79642 83.8578 8.86896 83.8578 13.0709C83.8578 17.3215 81.2953 20.3697 76.8869 20.3697C72.4785 20.3697 69.916 17.3215 69.916 13.0709ZM80.8217 13.0709C80.8217 10.6906 79.6194 8.20101 76.8991 8.20101C74.1787 8.20101 72.9764 10.6906 72.9764 13.0709C72.9764 15.4755 74.1787 17.9651 76.8991 17.9651C79.6194 17.9651 80.8217 15.4755 80.8217 13.0709Z" fill="black"/>
</svg>
