<svg width="23" height="31" viewBox="0 0 23 31" fill="none" xmlns="http://www.w3.org/2000/svg">
<path d="M20.1364 17.7066C19.3227 17.0993 18.5455 16.4678 17.7197 15.7999C17.5497 15.6663 17.3918 15.5327 17.2218 15.3991C17.4039 15.2534 17.5861 15.1077 17.7683 14.9619C18.6548 14.2575 19.4928 13.5896 20.3429 12.9217C21.4845 12.0108 22.0674 10.8328 22.0431 9.41192C22.0309 8.46466 22.0309 7.48096 22.0431 6.54584V6.50941C22.0552 5.14923 21.5087 4.00766 20.4157 3.1454C20.0757 2.87823 19.7235 2.5989 19.3956 2.33173C18.8734 1.91882 18.339 1.50591 17.829 1.08085C16.9303 0.340042 15.9102 -0.012146 14.6836 -0.012146H14.6593C12.3518 -1.57673e-06 10.0566 -1.57673e-06 8.11344 -1.57673e-06H5.87887L3.6443 0.0121428C2.95206 0.0121428 2.24769 0.0121428 1.55546 0.0121428C1.33686 0.0121428 1.1304 0.0242873 0.936091 0.0364317C0.85108 0.0364317 0.778213 0.0485761 0.705347 0.0485761L0.21957 0.0728649L0.122414 0.546497C-0.241918 2.271 0.256003 3.5826 1.68904 4.69989C4.99233 7.25022 8.3199 9.8977 11.5382 12.4602C12.5219 13.2374 13.5056 14.0268 14.4893 14.804H0.681058H0.11027L0.0616923 15.3748V15.387C-0.0476074 16.6743 -0.156907 17.998 1.10611 19.006C4.32438 21.5442 7.57909 24.131 10.7366 26.6327C12.109 27.7257 13.4934 28.8187 14.8657 29.9117C15.3029 30.2517 15.7523 30.4339 16.2259 30.4339C16.6874 30.4339 17.1367 30.2639 17.5618 29.936L17.8411 29.7174C18.7398 29.0252 19.6628 28.2965 20.5493 27.5557C21.5209 26.7542 22.0309 25.649 22.0309 24.386C22.0309 24.0945 22.0309 23.8031 22.0309 23.5237C22.0309 22.9165 22.0188 22.285 22.0431 21.6656C22.116 20.0383 21.4723 18.7145 20.1364 17.7066Z" fill="#0755E9"/>
</svg>
